<svg id="Capa_1" enable-background="new 0 0 512 512" height="512" viewBox="0 0 512 512" width="512" xmlns="http://www.w3.org/2000/svg"><g><g fill="#aa6a51"><path d="m410.365 384.453 19.029 55.147h29.85v-55.147z"/><path d="m101.635 384.453-19.029 55.147h-29.85v-55.147z"/></g><g fill="#87523e"><path d="m417.291 404.527h41.953v-20.074h-48.879z"/><path d="m52.756 404.527h41.953l6.926-20.074h-48.879z"/></g><path d="m129.227 351.991h-77.236c-1.236 0-2.239-1.002-2.239-2.239v-7.405c0-8.893 7.209-16.102 16.102-16.102h49.51c8.893 0 16.102 7.209 16.102 16.102v7.405c0 1.237-1.002 2.239-2.239 2.239z" fill="#0ed2b3"/><path d="m115.364 326.246h-25.331c8.893 0 16.102 7.209 16.102 16.102v7.405c0 1.236-1.002 2.239-2.239 2.239h25.331c1.236 0 2.239-1.002 2.239-2.239v-7.405c0-8.893-7.209-16.102-16.102-16.102z" fill="#01998d"/><g><path d="m198.741 104.08v162.997c0 8.284 6.716 15 15 15h244.888c8.284 0 15-6.716 15-15v-162.997c0-8.284-6.716-15-15-15h-244.888c-8.285 0-15 6.716-15 15z" fill="#01c0fa"/><path d="m458.628 89.08h-24.384c8.284 0 15 6.716 15 15v162.997c0 8.284-6.716 15-15 15h24.384c8.284 0 15-6.716 15-15v-162.997c0-8.284-6.716-15-15-15z" fill="#0290cf"/><path d="m458.628 89.08h-244.887c-8.284 0-15 6.716-15 15v129.385c0 8.284 6.716 15 15 15h244.888c8.284 0 15-6.716 15-15v-129.385c-.001-8.284-6.717-15-15.001-15z" fill="#596c76"/><path d="m458.628 89.08h-24.384c8.284 0 15 6.716 15 15v144.385h9.384c8.284 0 15-6.716 15-15v-129.385c0-8.284-6.716-15-15-15z" fill="#465a61"/><path d="m298.839 326.246 19.029-44.169h36.632l19.03 44.169z" fill="#e8edf2"/><path d="m363.261 302.413-8.761-20.336h-36.632l-8.761 20.336z" fill="#c5d3dd"/><path d="m386.074 326.246h-99.779c-9.307 0-16.851 7.544-16.851 16.851v3.298c0 3.091 2.506 5.597 5.597 5.597h122.287c3.091 0 5.597-2.506 5.597-5.597v-3.298c0-9.307-7.545-16.851-16.851-16.851z" fill="#01c0fa"/><path d="m386.074 326.246h-24.5c9.307 0 16.851 7.544 16.851 16.851v3.298c0 3.091-2.506 5.597-5.597 5.597h24.5c3.091 0 5.597-2.506 5.597-5.597v-3.298c0-9.307-7.545-16.851-16.851-16.851z" fill="#0290cf"/></g><path d="m7.5 361.991v12.462c0 5.523 4.477 10 10 10h477c5.523 0 10-4.477 10-10v-12.462c0-5.523-4.477-10-10-10h-477c-5.523 0-10 4.478-10 10z" fill="#aa6a51"/><path d="m494.5 351.991h-28.872c5.523 0 10 4.477 10 10v12.462c0 5.523-4.477 10-10 10h28.872c5.523 0 10-4.477 10-10v-12.462c0-5.522-4.477-10-10-10z" fill="#87523e"/><g><path d="m173.502 89.967-16.38 9.457c-4.06 2.344-6.108 7.068-5.043 11.634l15.573 66.77c1.259 5.396 7.37 8.045 12.169 5.275l54.799-31.638c4.799-2.77 5.56-9.388 1.516-13.176l-50.038-46.872c-3.421-3.205-8.536-3.794-12.596-1.45z" fill="#0ed2b3"/><path d="m185.888 167.299-15.573-66.77c-.983-4.213.69-8.558 4.145-11.046-.324.146-.645.303-.958.484l-16.38 9.457c-4.06 2.344-6.108 7.068-5.043 11.634l15.573 66.77c1.259 5.396 7.37 8.045 12.169 5.275l18.236-10.528c-4.799 2.769-10.91.12-12.169-5.276z" fill="#01998d"/></g><circle cx="90.609" cy="188.097" fill="#fe9738" r="17.817"/><path d="m494.5 344.491h-84.075v-1.395c0-13.427-10.924-24.351-24.351-24.351h-7.609l-12.565-29.166h92.73c12.407 0 22.5-10.093 22.5-22.5v-163c0-12.407-10.093-22.5-22.5-22.5h-244.89c-7.232 0-13.681 3.432-17.806 8.773l-4.708-4.41c-5.875-5.502-14.504-6.496-21.474-2.471l-1.695.979-9.123-15.801c-2.071-3.588-6.658-4.816-10.245-2.745s-4.816 6.658-2.745 10.245l9.123 15.801-1.695.979c-6.97 4.024-10.425 11.994-8.597 19.833l1.997 8.561-44.373 44.381c-3.524-1.863-7.534-2.923-11.79-2.923-13.959 0-25.316 11.357-25.316 25.316 0 4.255 1.06 8.266 2.923 11.79l-35.148 35.139c-2.929 2.929-2.93 7.678-.001 10.607 1.465 1.465 3.384 2.197 5.304 2.197 1.919 0 3.838-.732 5.303-2.196l35.15-35.141c1.361.719 2.793 1.323 4.286 1.787v106.466h-17.256c-13.014 0-23.602 10.588-23.602 23.602v2.144h-24.752c-9.649 0-17.5 7.851-17.5 17.5v12.462c0 9.649 7.851 17.5 17.5 17.5h27.756v47.646c0 4.142 3.358 7.5 7.5 7.5s7.5-3.358 7.5-7.5v-47.647h30.857l-15.597 45.201c-1.351 3.916.728 8.185 4.644 9.536.81.279 1.635.412 2.447.412 3.11 0 6.018-1.95 7.089-5.056l17.285-50.093h47.912c4.142 0 7.5-3.358 7.5-7.5s-3.358-7.5-7.5-7.5h-137.393c-1.378 0-2.5-1.122-2.5-2.5v-12.462c0-1.378 1.122-2.5 2.5-2.5h477c1.378 0 2.5 1.122 2.5 2.5v12.462c0 1.378-1.122 2.5-2.5 2.5h-309.606c-4.142 0-7.5 3.358-7.5 7.5s3.358 7.5 7.5 7.5h220.125l17.285 50.093c1.072 3.106 3.979 5.056 7.089 5.056.812 0 1.637-.133 2.447-.412 3.916-1.351 5.995-5.621 4.644-9.536l-15.597-45.201h30.857v47.647c0 4.142 3.358 7.5 7.5 7.5s7.5-3.358 7.5-7.5v-47.647h27.756c9.649 0 17.5-7.851 17.5-17.5v-12.462c0-9.649-7.851-17.5-17.5-17.5zm-132.368-25.745h-51.895l12.565-29.166h26.764zm96.498-44.166h-104.096c-.011 0-.022-.002-.033-.002h-36.632c-.011 0-.022.002-.033.002h-104.096c-4.135 0-7.5-3.364-7.5-7.5v-12.405c2.348.833 4.871 1.29 7.5 1.29h244.887c2.63 0 5.154-.458 7.502-1.291v12.405c.001 4.136-3.364 7.501-7.499 7.501zm-277.659-177.69 50.038 46.872c.069.064.278.26.234.639-.043.378-.292.521-.373.568l-54.799 31.638c-.081.047-.33.191-.679.039-.349-.151-.414-.43-.436-.522l-15.573-66.77c-.316-1.357.282-2.738 1.489-3.435l16.38-9.457c1.206-.697 2.702-.525 3.719.428zm-90.362 80.89c5.689 0 10.317 4.628 10.317 10.316 0 5.689-4.628 10.317-10.317 10.317-5.688 0-10.316-4.628-10.316-10.317-.001-5.688 4.627-10.316 10.316-10.316zm7.5 34.499c10.31-3.204 17.817-12.833 17.817-24.183 0-4.254-1.059-8.263-2.921-11.786l37.779-37.786 9.564 41.006c1.145 4.909 4.453 8.874 9.078 10.878 2.03.88 4.162 1.317 6.285 1.317 2.713 0 5.412-.714 7.86-2.128l7.669-4.428v9.74c0 4.142 3.358 7.5 7.5 7.5s7.5-3.358 7.5-7.5v-18.401l32.13-18.55c4.365-2.52 7.199-6.837 7.775-11.844s-1.203-9.855-4.881-13.301l-34.238-32.072c1.232-2.474 3.782-4.163 6.715-4.163h244.89c4.135 0 7.5 3.364 7.5 7.5v129.347c0 .013-.002.026-.002.039 0 4.136-3.364 7.5-7.5 7.5h-244.888c-4.136 0-7.5-3.364-7.5-7.5v-8.556c0-4.142-3.358-7.5-7.5-7.5s-7.5 3.358-7.5 7.5v42.17c0 12.407 10.093 22.5 22.5 22.5h92.729l-12.566 29.166h-7.609c-13.427 0-24.351 10.924-24.351 24.351v1.395h-122.978v-2.144c0-13.014-10.588-23.602-23.602-23.602h-17.255zm-40.857 132.212v-2.144c0-4.743 3.859-8.602 8.602-8.602h49.51c4.743 0 8.602 3.859 8.602 8.602v2.144zm219.692 0v-1.395c0-5.156 4.195-9.351 9.351-9.351h99.779c5.156 0 9.351 4.195 9.351 9.351v1.395z"/></g></svg>