<?xml version="1.0" encoding="iso-8859-1"?>
<!-- Generator: Adobe Illustrator 19.0.0, SVG Export Plug-In . SVG Version: 6.00 Build 0)  -->
<svg version="1.1" id="Capa_1" xmlns="http://www.w3.org/2000/svg" xmlns:xlink="http://www.w3.org/1999/xlink" x="0px" y="0px"
	 viewBox="0 0 512.006 512.006" style="enable-background:new 0 0 512.006 512.006;" xml:space="preserve">
<g>
	<g transform="translate(1 1)">
		<path style="fill:#F4F4F4;" d="M160.881,97.308c-5.121-2.918-10.916-4.448-16.811-4.437c0-28.277-22.923-51.2-51.2-51.2
			s-51.2,22.923-51.2,51.2c-18.851,0-34.133,15.282-34.133,34.133s15.282,34.133,34.133,34.133h53.419l35.183-34.133L160.881,97.308
			z"/>
		<g>
			<path style="fill:#00BCD4;" d="M237.937,7.537v35.072c-25.6,17.152-59.733,0-59.733,0V7.537
				C178.204,7.537,212.337,24.689,237.937,7.537z"/>
			<path style="fill:#00BCD4;" d="M408.604,7.537v35.072c-25.6,17.152-59.733,0-59.733,0V7.537
				C348.871,7.537,383.004,24.689,408.604,7.537z"/>
		</g>
		<path style="fill:#CFD8DC;" d="M485.404,468.337h-8.533v-230.4h25.6L353.137,92.87H165.404L16.071,237.937h25.6v230.4h-8.533
			c-4.707,0.014-8.52,3.826-8.533,8.533v25.6h469.333v-25.6C493.924,472.163,490.111,468.351,485.404,468.337z"/>
		<rect x="289.137" y="280.604" style="fill:#607D8B;" width="187.733" height="187.733"/>
		<rect x="289.137" y="280.604" style="fill:#CFD8DC;" width="162.133" height="187.733"/>
		<rect x="289.137" y="237.937" style="fill:#D84315;" width="187.733" height="42.667"/>
		<rect x="289.137" y="237.937" style="fill:#FF5722;" width="162.133" height="42.667"/>
		<polygon style="fill:#F57C00;" points="502.471,237.937 314.737,237.937 165.404,92.87 353.137,92.87 		"/>
		<polygon style="fill:#FF9801;" points="468.337,237.937 314.737,237.937 165.404,92.87 319.004,92.87 		"/>
		<polygon style="fill:#FEC108;" points="314.737,237.937 16.071,237.937 165.404,92.87 		"/>
		<rect x="41.671" y="237.937" style="fill:#FF9801;" width="247.467" height="42.667"/>
		<g>
			<rect x="84.337" y="314.737" style="fill:#F4F4F4;" width="34.133" height="119.467"/>
			<rect x="212.337" y="314.737" style="fill:#F4F4F4;" width="34.133" height="119.467"/>
		</g>
		<g>
			<circle style="fill:#00BCD4;" cx="161.137" cy="178.204" r="25.6"/>
			<path style="fill:#00BCD4;" d="M340.337,331.804c9.426,0,17.067,7.641,17.067,17.067v51.2h-34.133v-51.2
				C323.271,339.445,330.912,331.804,340.337,331.804z"/>
			<path style="fill:#00BCD4;" d="M425.671,331.804c9.426,0,17.067,7.641,17.067,17.067v51.2h-34.133v-51.2
				C408.604,339.445,416.245,331.804,425.671,331.804z"/>
		</g>
		<path style="fill:#FF9801;" d="M306.204,476.87v25.6h-281.6v-25.6c0.014-4.707,3.826-8.52,8.533-8.533h264.533
			C302.378,468.351,306.19,472.163,306.204,476.87z"/>
		<path style="fill:#D84315;" d="M493.937,476.87v25.6H306.204v-25.6c-0.014-4.707-3.826-8.52-8.533-8.533h187.733
			C490.111,468.351,493.924,472.163,493.937,476.87z"/>
		<path style="fill:#FF5722;" d="M468.337,476.87v25.6H306.204v-25.6c-0.014-4.707-3.826-8.52-8.533-8.533h162.133
			C464.511,468.351,468.324,472.163,468.337,476.87z"/>
		<g>
			<path style="fill:#F5F5F5;" d="M75.804,280.604h51.2v25.6c0,4.713-3.821,8.533-8.533,8.533H84.337
				c-4.713,0-8.533-3.821-8.533-8.533V280.604z"/>
			<path style="fill:#F5F5F5;" d="M84.337,434.204h34.133c4.713,0,8.533,3.82,8.533,8.533v25.6h-51.2v-25.6
				C75.804,438.024,79.624,434.204,84.337,434.204z"/>
			<path style="fill:#F5F5F5;" d="M203.804,280.604h51.2v25.6c0,4.713-3.821,8.533-8.533,8.533h-34.133
				c-4.713,0-8.533-3.821-8.533-8.533V280.604z"/>
			<path style="fill:#F5F5F5;" d="M212.337,434.204h34.133c4.713,0,8.533,3.82,8.533,8.533v25.6h-51.2v-25.6
				C203.804,438.024,207.624,434.204,212.337,434.204z"/>
		</g>
	</g>
	<g>
		<path d="M503.471,494.937V477.87c-0.011-9.421-7.645-17.056-17.067-17.067V247.47h17.067c3.474,0,6.601-2.105,7.908-5.324
			c1.307-3.219,0.533-6.908-1.958-9.33l-142.573-138.5c0.009-0.156,0.09-0.288,0.09-0.446V55.917
			c7.89,2.455,16.096,3.746,24.358,3.833c11.207,0.21,22.218-2.958,31.6-9.092c2.353-1.626,3.716-4.34,3.616-7.198
			c0.066-0.26,0.12-0.523,0.159-0.789V8.537c-0.001-3.152-1.738-6.048-4.52-7.531c-2.781-1.483-6.154-1.313-8.772,0.443
			c-21.042,14.15-50.859-0.396-51.142-0.533c-2.645-1.332-5.791-1.197-8.312,0.356c-2.521,1.554-4.056,4.303-4.055,7.264v76.8
			H179.204v-29.42c7.89,2.455,16.096,3.746,24.358,3.833c11.207,0.21,22.218-2.958,31.6-9.092c2.353-1.626,3.716-4.34,3.616-7.198
			c0.066-0.26,0.12-0.523,0.159-0.789V8.537c-0.001-3.152-1.738-6.048-4.52-7.531c-2.782-1.483-6.154-1.313-8.772,0.443
			c-21.05,14.15-50.85-0.396-51.142-0.533c-2.645-1.332-5.791-1.197-8.312,0.356c-2.521,1.554-4.056,4.303-4.055,7.264v78.107
			c-0.195,0.116-0.375,0.246-0.558,0.377c-0.395,0.211-0.771,0.455-1.125,0.729l-0.363,0.352c-2.268-0.864-4.605-1.533-6.987-1.998
			c-3.902-29.733-29.242-51.966-59.23-51.968c-29.988-0.002-55.331,22.227-59.237,51.959c-21.609,4.143-36.524,24.037-34.444,45.941
			s20.475,38.634,42.477,38.634h32.423l-63.973,62.146c-2.491,2.422-3.265,6.111-1.958,9.33s4.434,5.324,7.908,5.324h17.067v213.333
			c-9.421,0.011-17.056,7.645-17.067,17.067v17.067H8.537c-4.713,0-8.533,3.82-8.533,8.533s3.821,8.533,8.533,8.533h494.933
			c4.713,0,8.533-3.821,8.533-8.533S508.183,494.937,503.471,494.937z M264.537,460.804v-17.067
			c-0.02-6.069-3.272-11.668-8.533-14.692V321.896c5.262-3.025,8.513-8.623,8.533-14.692v-17.067h17.067v170.667H264.537z
			 M136.537,460.804v-17.067c-0.02-6.069-3.272-11.668-8.533-14.692V321.896c5.262-3.025,8.513-8.623,8.533-14.692v-17.067h59.733
			v17.067c0.02,6.069,3.272,11.668,8.533,14.692v107.149c-5.262,3.025-8.513,8.623-8.533,14.692v17.067H136.537z M93.871,324.27
			h17.067v102.4H93.871V324.27z M119.479,307.204H85.337v-17.067h34.133L119.479,307.204z M85.337,443.737h34.133v17.067H85.337
			V443.737z M221.871,324.27h17.067v102.4h-17.067V324.27z M247.479,307.204h-34.142v-17.067h34.133L247.479,307.204z
			 M213.337,460.804v-17.067h34.133v17.067H213.337z M298.671,460.804V290.137h170.667v170.667H298.671z M469.337,273.07H298.671
			v-25.6h170.667V273.07z M477.871,230.404H319.204l-131.765-128h163.231l131.767,128H477.871z M409.604,22.012v16.646
			c-13.771,5.353-29.093,5.083-42.667-0.752V20.904C380.738,25.478,395.584,25.863,409.604,22.012z M221.871,22.012v16.646
			c-13.77,5.354-29.093,5.084-42.667-0.751V20.904C193.005,25.477,207.851,25.863,221.871,22.012z M42.671,153.604
			c-14.138,0-25.6-11.462-25.6-25.6s11.462-25.6,25.6-25.6c2.263,0.001,4.434-0.898,6.035-2.499c1.6-1.6,2.499-3.771,2.499-6.035
			c0-23.564,19.103-42.667,42.667-42.667s42.667,19.103,42.667,42.667c-0.001,2.263,0.898,4.434,2.499,6.035
			c1.6,1.6,3.771,2.499,6.035,2.499c0.091,0,0.173,0.033,0.264,0.034l-52.672,51.166H42.671z M166.404,105.766l128.3,124.638h-256.6
			L166.404,105.766z M204.804,247.47h76.8v25.6h-230.4v-25.6H204.804z M51.204,290.137h17.067v17.067
			c0.02,6.069,3.272,11.668,8.533,14.692v107.149c-5.262,3.025-8.513,8.623-8.533,14.692v17.067H51.204V290.137z M213.337,494.937
			h-179.2V477.87h264.533v17.067H213.337z M315.737,494.937V477.87h170.667v17.067H315.737z"/>
		<path d="M162.137,213.337c18.851,0,34.133-15.282,34.133-34.133s-15.282-34.133-34.133-34.133s-34.133,15.282-34.133,34.133
			C128.024,198.047,143.294,213.317,162.137,213.337z M162.137,162.137c9.426,0,17.067,7.641,17.067,17.067
			c0,9.426-7.641,17.067-17.067,17.067s-17.067-7.641-17.067-17.067C145.081,169.782,152.716,162.148,162.137,162.137z"/>
		<path d="M341.337,324.27c-14.132,0.015-25.585,11.468-25.6,25.6v51.2c-0.001,2.263,0.898,4.434,2.499,6.035
			c1.6,1.6,3.771,2.499,6.035,2.499h34.133c2.263,0.001,4.434-0.898,6.035-2.499c1.6-1.6,2.499-3.771,2.499-6.035v-51.2
			C366.922,335.738,355.469,324.286,341.337,324.27z M349.871,392.537h-17.067V349.87c0-4.713,3.82-8.533,8.533-8.533
			s8.533,3.82,8.533,8.533V392.537z"/>
		<path d="M426.671,324.27c-14.132,0.015-25.585,11.468-25.6,25.6v51.2c-0.001,2.263,0.898,4.434,2.499,6.035
			c1.6,1.6,3.771,2.499,6.035,2.499h34.133c2.263,0.001,4.434-0.898,6.035-2.499c1.6-1.6,2.499-3.771,2.499-6.035v-51.2
			C452.255,335.738,440.803,324.286,426.671,324.27z M435.204,392.537h-17.067V349.87c0-4.713,3.821-8.533,8.533-8.533
			s8.533,3.82,8.533,8.533V392.537z"/>
	</g>
</g>
<g>
</g>
<g>
</g>
<g>
</g>
<g>
</g>
<g>
</g>
<g>
</g>
<g>
</g>
<g>
</g>
<g>
</g>
<g>
</g>
<g>
</g>
<g>
</g>
<g>
</g>
<g>
</g>
<g>
</g>
</svg>
