<svg id="Capa_1" enable-background="new 0 0 512 512" height="512" viewBox="0 0 512 512" width="512" xmlns="http://www.w3.org/2000/svg"><g><g><g><path d="m85.25 63.075-7.204-17.506h-16.89c-16.155 0-29.251 13.096-29.251 29.251v407.93c0 16.155 13.096 29.251 29.251 29.251h277.571c16.154-.001 29.248-13.097 29.248-29.251v-419.675z" fill="#b78b7a"/></g><path d="m396.766 45.568h-37.29v437.181c0 16.155-13.096 29.251-29.251 29.251h66.541c16.155 0 29.251-13.096 29.251-29.251v-407.93c0-16.155-13.096-29.251-29.251-29.251z" fill="#aa7a63"/><path d="m367.975 463.32v-408.978l-8.499-8.774h-281.43v402.743c0 8.522 6.908 15.43 15.43 15.43h270.971c1.216 0 2.393-.155 3.528-.421z" fill="#fffbe4"/><path d="m359.476 45.568v418.173h4.97c8.522 0 15.43-6.908 15.43-15.43v-402.743z" fill="#fbf4c6"/><path d="m326.254 509.139c53.22-19.585 91.185-70.722 91.185-130.738s-37.965-111.153-91.185-130.738c-4.225 2.917-6.997 7.788-6.997 13.31 0 1.509-1.033 2.808-2.494 3.187-10.779 2.798-20.958 7.081-30.308 12.618-1.154.683-2.58.591-3.672-.187-7.758-5.528-18.584-4.83-25.544 2.13l-10.423 10.423c-6.96 6.959-7.657 17.786-2.13 25.544.778 1.092.87 2.518.187 3.672-5.537 9.35-9.82 19.529-12.617 30.308-.379 1.461-1.678 2.494-3.187 2.494-8.931 0-16.171 7.24-16.171 16.171v22.137c0 8.931 7.24 16.171 16.171 16.171 1.509 0 2.808 1.033 3.187 2.494 2.798 10.779 7.081 20.958 12.617 30.308.683 1.154.591 2.58-.187 3.672-5.528 7.757-4.83 18.584 2.13 25.544l10.423 10.423c6.96 6.96 17.786 7.658 25.544 2.13 1.092-.778 2.518-.871 3.672-.187 9.35 5.536 19.529 9.82 30.308 12.617 1.461.379 2.494 1.678 2.494 3.187-.001 5.522 2.772 10.393 6.997 13.31z" fill="#ffe07d"/><g><g><g><g><g><g><path d="m260.546 39.522v-7.937c0-17.444-14.141-31.585-31.585-31.585-17.444 0-31.585 14.141-31.585 31.585v7.937c0 3.34-2.707 6.047-6.047 6.047h-47.44v38.841c0 5.784 4.689 10.474 10.474 10.474h149.196c5.784 0 10.474-4.689 10.474-10.474v-38.842h-47.44c-3.339 0-6.047-2.707-6.047-6.046z" fill="#a7a2d3"/></g><circle cx="228.961" cy="31.036" fill="#f9f6f9" r="8.034"/></g></g></g></g><g><g><path d="m334.13 161.522h-210.337c-4.267 0-7.726-3.459-7.726-7.726s3.459-7.726 7.726-7.726h210.337c4.267 0 7.726 3.459 7.726 7.726s-3.459 7.726-7.726 7.726z" fill="#dddaec"/></g><g><path d="m334.13 210.175h-210.337c-4.267 0-7.726-3.459-7.726-7.726 0-4.268 3.459-7.726 7.726-7.726h210.337c4.267 0 7.726 3.459 7.726 7.726s-3.459 7.726-7.726 7.726z" fill="#dddaec"/></g><g><path d="m239.857 258.829h-116.064c-4.267 0-7.726-3.459-7.726-7.726s3.459-7.726 7.726-7.726h116.064c4.267 0 7.726 3.459 7.726 7.726s-3.459 7.726-7.726 7.726z" fill="#dddaec"/></g><g><path d="m201.048 307.483h-77.256c-4.267 0-7.726-3.459-7.726-7.726s3.459-7.726 7.726-7.726h77.256c4.267 0 7.726 3.459 7.726 7.726s-3.459 7.726-7.726 7.726z" fill="#dddaec"/></g></g></g><g><path d="m401.687 442.794c10.061-19.258 15.752-41.16 15.752-64.393s-5.691-45.136-15.752-64.393c-14.838-12.729-34.109-20.438-55.191-20.438-46.851 0-84.831 37.98-84.831 84.831s37.98 84.831 84.831 84.831c21.083 0 40.354-7.708 55.191-20.438z" fill="#f9f6f9"/><path d="m463.923 351.162c-1.51 0-2.808-1.033-3.187-2.494-2.798-10.779-7.081-20.958-12.618-30.308-.684-1.154-.591-2.58.187-3.672 5.528-7.758 4.83-18.584-2.13-25.544l-10.423-10.423c-6.96-6.96-17.786-7.658-25.544-2.13-1.092.779-2.518.871-3.672.187-9.35-5.537-19.529-9.82-30.308-12.618-1.461-.379-2.494-1.678-2.494-3.187 0-8.931-7.24-16.171-16.171-16.171h-22.136c-5.82 0-10.906 3.085-13.754 7.698 52.905 17.386 91.108 67.178 91.108 125.901 0 58.722-38.203 108.515-91.108 125.901 2.848 4.613 7.935 7.698 13.754 7.698h22.136c8.931 0 16.171-7.24 16.171-16.171 0-1.51 1.033-2.808 2.494-3.187 10.779-2.798 20.958-7.081 30.308-12.618 1.154-.683 2.58-.591 3.672.187 7.757 5.528 18.584 4.83 25.544-2.13l10.423-10.423c6.96-6.96 7.658-17.787 2.13-25.544-.778-1.092-.871-2.518-.187-3.672 5.537-9.35 9.82-19.529 12.617-30.308.379-1.461 1.678-2.494 3.187-2.494 8.931 0 16.171-7.24 16.171-16.171v-22.137c.001-8.93-7.239-16.17-16.17-16.17z" fill="#ffd064"/><path d="m391.657 306.604c13.364 20.689 21.124 45.336 21.124 71.797s-7.76 51.109-21.124 71.797c23.827-15.019 39.67-41.551 39.67-71.797s-15.843-56.778-39.67-71.797z" fill="#dddaec"/><path d="m358.967 371.633c-1.659-.542-3.232-1.035-4.745-1.504v-28.121c3.942 1.491 6.374 3.474 6.613 3.674 3.219 2.761 8.068 2.412 10.857-.793 2.801-3.218 2.463-8.099-.755-10.9-.405-.352-6.749-5.751-16.715-8.062v-3.249c0-4.268-3.459-7.726-7.726-7.726s-7.726 3.459-7.726 7.726v2.754c-1.401.233-2.83.539-4.291.945-10.678 2.972-18.878 12.026-20.889 23.066-1.708 9.37 1.386 17.976 8.276 23.019 5.992 4.386 11.381 6.915 16.905 8.916v34.922c-5.37-.384-8.8-1.609-14.626-5.131-3.652-2.208-8.402-1.035-10.609 2.616-2.207 3.652-1.036 8.402 2.615 10.61 8.837 5.341 14.88 6.962 22.62 7.385v2.438c0 4.268 3.459 7.726 7.726 7.726s7.726-3.459 7.726-7.726v-3.248c5.638-1.278 10.758-3.844 15.081-7.605 5.873-5.109 9.747-12.023 10.909-19.469 2.283-14.638-6.056-27.302-21.246-32.263zm-27.975-11.639c-2.963-2.169-2.434-6.504-2.201-7.781.727-3.991 3.738-9.254 9.83-10.949.05-.014.098-.024.148-.038v23.452c-2.549-1.218-5.06-2.695-7.777-4.684zm33.953 41.519c-1.009 6.467-5.428 10.896-10.722 13.168v-28.341c11.234 3.696 11.242 11.839 10.722 15.173z" fill="#eabc6b"/></g></g></g></svg>