<?xml version="1.0" encoding="UTF-8" standalone="no"?>
<svg
   xmlns:dc="http://purl.org/dc/elements/1.1/"
   xmlns:cc="http://creativecommons.org/ns#"
   xmlns:rdf="http://www.w3.org/1999/02/22-rdf-syntax-ns#"
   xmlns:svg="http://www.w3.org/2000/svg"
   xmlns="http://www.w3.org/2000/svg"
   xmlns:sodipodi="http://sodipodi.sourceforge.net/DTD/sodipodi-0.dtd"
   xmlns:inkscape="http://www.inkscape.org/namespaces/inkscape"
   version="1.0"
   width="1280.000000pt"
   height="640.000000pt"
   viewBox="0 0 1280.000000 640.000000"
   preserveAspectRatio="xMidYMid meet"
   id="svg16"
   sodipodi:docname="fleche-bas.svg"
   inkscape:version="1.0.2 (e86c870879, 2021-01-15)">
  <defs
     id="defs20" />
  <sodipodi:namedview
     pagecolor="#ffffff"
     bordercolor="#666666"
     borderopacity="1"
     objecttolerance="10"
     gridtolerance="10"
     guidetolerance="10"
     inkscape:pageopacity="0"
     inkscape:pageshadow="2"
     inkscape:window-width="1920"
     inkscape:window-height="1001"
     id="namedview18"
     showgrid="false"
     inkscape:zoom="0.54375"
     inkscape:cx="853.33333"
     inkscape:cy="279.54023"
     inkscape:window-x="-9"
     inkscape:window-y="-9"
     inkscape:window-maximized="1"
     inkscape:current-layer="svg16" />
  <metadata
     id="metadata10">
Created by potrace 1.15, written by Peter Selinger 2001-2017
<rdf:RDF>
  <cc:Work
     rdf:about="">
    <dc:format>image/svg+xml</dc:format>
    <dc:type
       rdf:resource="http://purl.org/dc/dcmitype/StillImage" />
    <dc:title></dc:title>
  </cc:Work>
</rdf:RDF>
</metadata>
  <g
     transform="matrix(0,-0.04535107,-0.07276208,0,850.95381,612.07338)"
     fill="#000000"
     stroke="none"
     id="g14">
    <path
       d="m 3310,5925 c -36,-8 -92,-28 -125,-45 -33,-16 -352,-240 -710,-498 C 2118,5125 1465,4656 1025,4341 489,3957 203,3745 159,3701 -34,3507 -51,3203 119,2977 167,2912 3003,590 3097,538 c 216,-119 480,-82 655,93 111,111 164,239 162,394 -1,133 -35,235 -113,338 -22,29 -331,289 -814,685 l -778,637 5078,5 5078,5 59,22 c 241,91 391,319 372,563 -18,233 -162,415 -393,498 -45,16 -369,17 -5132,22 l -5084,5 794,570 c 445,319 818,594 849,625 176,177 206,470 70,678 -74,114 -185,200 -306,237 -72,23 -207,28 -284,10 z"
       id="path12" />
  </g>
</svg>
