<svg id="Filled-Outline" enable-background="new 0 0 512 512" height="512" viewBox="0 0 512 512" width="512" xmlns="http://www.w3.org/2000/svg"><g><g><path d="m128 88-104-64v320h104z" fill="#bcc2c6"/><path d="m384 88 104-64v320h-104z" fill="#bcc2c6"/><path d="m128 88h256v256h-256z" fill="#efeeef"/><path d="m288 120v-48l48-48h112v72h-40l-40 40-24-24 24-24-24-24-24 24v32z" fill="#fac8b2"/><path d="m184 376v48l64 64h112v-64h-32l-48-48-24 24 24 24-24 24-40-40v-32z" fill="#fac8b2"/><path d="m24 344h464v32h-464z" fill="#7f8b8c"/><path d="m320 120h32v80h-32z" fill="#e22526"/><path d="m240 120h32v80h-32z" fill="#be202e"/><path d="m224 200h128v32h-128z" fill="#e22526"/><path d="m240 232h32v80h-32z" fill="#e22526"/><path d="m176 232h32v80h-32z" fill="#be202e"/><path d="m320 232h32v80h-32z" fill="#e22526"/><path d="m160 200h64v32h-64z" fill="#be202e"/><path d="m240 288h-32c-4.4179688 0-8-3.5820313-8-8s3.5820313-8 8-8h32c4.4179688 0 8 3.5820313 8 8s-3.5820312 8-8 8z" fill="#be202e"/><path d="m320 288h-48c-4.4179688 0-8-3.5820313-8-8s3.5820313-8 8-8h48c4.4179688 0 8 3.5820313 8 8s-3.5820312 8-8 8z" fill="#e22526"/><path d="m272 120h48v32h-48z" fill="#be202e"/></g><path d="m491.9023438 17.0166016c-2.5302734-1.4140625-5.6259766-1.3505859-8.0957031.1708984l-27.8066407 17.1149902v-10.3024902c0-4.4179688-3.5820313-8-8-8h-112c-2.1220703 0-4.15625.8427734-5.6572266 2.3427734l-48 48c-1.5 1.5009766-2.3427734 3.5351563-2.3427734 5.6572266v8h-149.7358398l-102.0717774-62.8134766c-2.46875-1.5195313-5.5664063-1.5839844-8.0947266-.1699219-2.5302734 1.413086-4.0976562 4.084961-4.0976562 6.9833985v352c0 4.4179688 3.5820313 8 8 8h152v40c0 2.1220703.8427734 4.15625 2.3427734 5.6572266l64 64c1.5009766 1.5 3.5351563 2.3427734 5.6572266 2.3427734h112c4.4179688 0 8-3.5820313 8-8v-64c0-4.4179688-3.5820313-8-8-8h-28.6865234l-31.9992676-32h188.685791c4.4179688 0 8-3.5820313 8-8v-352c0-2.8984375-1.5673828-5.5703125-4.0976562-6.9833984zm-11.9023438 21.3017578v297.6816406h-88v-212.6860352l19.3134766-19.3139648h36.6865234c4.4179688 0 8-3.5820313 8-8v-42.9101562zm-184 36.9951172 43.3134766-43.3134766h100.6865234v56h-32c-2.1220703 0-4.15625.8427734-5.6572266 2.3427734l-34.3427734 34.34375-12.6865234-12.6865234 18.34375-18.3427734c3.1240234-3.125 3.1240234-8.1894531 0-11.3144531l-24-24c-3.125-3.1230469-8.1894531-3.1230469-11.3144531 0l-24 24c-1.5000001 1.5009765-2.3427735 3.5351562-2.3427735 5.6572265v24h-16zm16 196.6865234h-32v-32h32zm-80 0h-16v-32h16zm-16-48h-48v-16h48zm-32 16h16v64h-16zm144-144h20.6860352l-10.3432617 10.3427734c-1.5620117 1.5625-2.3430176 3.6098633-2.3430176 5.6572266h-7.9997559zm11.3134766-16 4.6865234-4.6865234 4.6865234 4.6865234zm-107.3134766 144v-16h112v16zm112-32h-16v-40-24h16zm-32-48h-32v-16h8 24zm0 16v32h-32v-32zm-48 32h-16v-64h16zm-16 48h16v64h-16zm80 0h16v64h-16zm-48-128h-40c-4.4179688 0-8 3.5820313-8 8v72h-72c-4.4179688 0-8 3.5820313-8 8v32c0 4.4179688 3.5820313 8 8 8h8v72c0 4.4179688 3.5820313 8 8 8h32c4.4179688 0 8-3.5820313 8-8v-24h16v24c0 4.4179688 3.5820313 8 8 8h32c4.4179688 0 8-3.5820313 8-8v-24h32v24c0 4.4179688 3.5820313 8 8 8h32c4.4179688 0 8-3.5820313 8-8v-172.6855469l2.3427734 2.3427734c1.5625 1.5615235 3.609375 2.3427735 5.6572266 2.3427735s4.0947266-.78125 5.6572266-2.3427734l2.3427734-2.3427735v196.6855469h-240v-240h144zm-248-73.6835937 88 54.1542969v243.5292968h-88zm296 393.6835937h24v48h-100.6865234l-59.3134766-59.3134766v-36.6865234h16v24c0 2.1220703.8427734 4.15625 2.3427734 5.6572266l40 40c3.125 3.1230469 8.1894531 3.1230469 11.3144531 0l24-24c3.1240234-3.125 3.1240234-8.1894531 0-11.3144531l-18.3437499-18.3427735 12.6865234-12.6865234 42.3427734 42.34375c1.5009766 1.5 3.5351563 2.3427734 5.6572266 2.3427734zm-77.6572266-26.3427734 18.34375 18.3427734-12.6865234 12.6865234-32-32v-20.6865234h36.6855469l-10.3427734 10.3427734c-3.1240235 3.125-3.1240235 8.1894532-.0000001 11.3144532zm229.6572266-37.6572266h-448v-16h448z"/></g></svg>