<svg height="480pt" viewBox="0 0 480 479" width="480pt" xmlns="http://www.w3.org/2000/svg"><path d="m424 112.5c0 57.4375-46.5625 104-104 104s-104-46.5625-104-104 46.5625-104 104-104 104 46.5625 104 104zm0 0" fill="#5eac24"/><path d="m160 216.5c-44.183594 0-80-35.820312-80-80 0-44.183594 35.816406-80 80-80s80 35.816406 80 80c.046875 11.320312-2.386719 22.515625-7.121094 32.796875-12.859375 28.730469-41.402344 47.214844-72.878906 47.203125zm0 0" fill="#4e901e"/><path d="m0 312.5h480v40h-480zm0 0" fill="#6a563d"/><path d="m0 400.5h480v40h-480zm0 0" fill="#6a563d"/><g fill="#957856"><path d="m72 304.5v168h-48v-168l24-32zm0 0"/><path d="m168 304.5v168h-48v-168l24-32 16 21.359375zm0 0"/><path d="m264 304.5v168h-48v-168l24-32zm0 0"/><path d="m360 304.5v168h-48v-168l8-10.640625 16-21.359375zm0 0"/><path d="m456 304.5v168h-48v-168l24-32zm0 0"/></g><path d="m56 328.5c0 4.417969-3.582031 8-8 8s-8-3.582031-8-8 3.582031-8 8-8 8 3.582031 8 8zm0 0"/><path d="m56 416.5c0 4.417969-3.582031 8-8 8s-8-3.582031-8-8 3.582031-8 8-8 8 3.582031 8 8zm0 0"/><path d="m152 328.5c0 4.417969-3.582031 8-8 8s-8-3.582031-8-8 3.582031-8 8-8 8 3.582031 8 8zm0 0"/><path d="m152 416.5c0 4.417969-3.582031 8-8 8s-8-3.582031-8-8 3.582031-8 8-8 8 3.582031 8 8zm0 0"/><path d="m248 328.5c0 4.417969-3.582031 8-8 8s-8-3.582031-8-8 3.582031-8 8-8 8 3.582031 8 8zm0 0"/><path d="m248 416.5c0 4.417969-3.582031 8-8 8s-8-3.582031-8-8 3.582031-8 8-8 8 3.582031 8 8zm0 0"/><path d="m344 328.5c0 4.417969-3.582031 8-8 8s-8-3.582031-8-8 3.582031-8 8-8 8 3.582031 8 8zm0 0"/><path d="m344 416.5c0 4.417969-3.582031 8-8 8s-8-3.582031-8-8 3.582031-8 8-8 8 3.582031 8 8zm0 0"/><path d="m440 328.5c0 4.417969-3.582031 8-8 8s-8-3.582031-8-8 3.582031-8 8-8 8 3.582031 8 8zm0 0"/><path d="m440 416.5c0 4.417969-3.582031 8-8 8s-8-3.582031-8-8 3.582031-8 8-8 8 3.582031 8 8zm0 0"/><path d="m480 320.5v-16h-16c0-1.734375-.5625-3.417969-1.601562-4.800781l-24-32c-1.574219-1.914063-3.921876-3.023438-6.398438-3.023438s-4.824219 1.109375-6.398438 3.023438l-24 32c-1.039062 1.382812-1.601562 3.066406-1.601562 4.800781h-32c0-1.734375-.5625-3.417969-1.601562-4.800781l-24-32c-1.574219-1.914063-3.921876-3.023438-6.398438-3.023438s-4.824219 1.109375-6.398438 3.023438l-1.601562 2.136719v-45.746094c54.996094-3.90625 98.957031-47.28125 103.601562-102.21875 4.648438-54.9375-31.398437-105.078125-84.957031-118.167969-53.558593-13.09375-108.671875 14.765625-129.890625 65.652344-28.953125-24.496094-70.347656-27.675781-102.699218-7.890625-32.355469 19.789062-48.382813 58.085937-39.761719 95.019531 8.617187 36.933594 39.9375 64.179687 77.707031 67.605469v45.746094l-1.601562-2.136719c-1.574219-1.914063-3.921876-3.023438-6.398438-3.023438s-4.824219 1.109375-6.398438 3.023438l-24 32c-1.039062 1.382812-1.601562 3.066406-1.601562 4.800781h-32c0-1.734375-.5625-3.417969-1.601562-4.800781l-24-32c-1.574219-1.914063-3.921876-3.023438-6.398438-3.023438s-4.824219 1.109375-6.398438 3.023438l-24 32c-1.039062 1.382812-1.601562 3.066406-1.601562 4.800781h-16v16h16v24h-16v16h16v32h-16v16h16v24h-16v16h16v24c0 4.417969 3.582031 8 8 8h48c4.417969 0 8-3.582031 8-8v-24h32v24c0 4.417969 3.582031 8 8 8h48c4.417969 0 8-3.582031 8-8v-24h32v24c0 4.417969 3.582031 8 8 8h48c4.417969 0 8-3.582031 8-8v-24h32v24c0 4.417969 3.582031 8 8 8h48c4.417969 0 8-3.582031 8-8v-24h32v24c0 4.417969 3.582031 8 8 8h48c4.417969 0 8-3.582031 8-8v-24h16v-16h-16v-24h16v-16h-16v-32h16v-16h-16v-24zm-416 144h-32v-157.335938l16-21.328124 16 21.328124zm287.542969-442.707031c42.773437 14.929687 69.289062 57.730469 63.609375 102.675781-5.683594 44.945312-42.011719 79.804688-87.152344 83.621094v-35.3125l37.785156-25.183594c3.675782-2.449219 4.667969-7.417969 2.214844-11.09375-2.453125-3.679688-7.421875-4.671875-11.097656-2.21875l-28.902344 19.273438v-9.054688c0-4.417969-3.582031-8-8-8s-8 3.582031-8 8v26.972656l-13.28125-6.582031c-3.957031-1.964844-8.753906-.347656-10.71875 3.609375-1.960938 3.953125-.347656 8.753906 3.609375 10.71875l20.390625 10.121094v18.664062c-28.058594-2.308594-53.671875-16.882812-69.992188-39.824218 11.332032-28.957032 6.386719-61.753907-12.976562-86.082032 8.160156-24.308594 25.6875-44.351562 48.691406-55.675781 23.007813-11.324219 49.582032-12.988281 73.820313-4.628906zm-263.542969 114.707031c.011719-19.472656 7.902344-38.109375 21.875-51.671875s32.835938-20.894531 52.300781-20.328125c37.789063 1.117188 68.28125 31.273438 69.8125 69.046875 1.53125 37.777344-26.414062 70.304687-63.988281 74.480469v-35.25l37.785156-25.183594c3.675782-2.449219 4.667969-7.417969 2.214844-11.09375-2.453125-3.679688-7.421875-4.671875-11.097656-2.21875l-28.902344 19.273438v-9.054688c0-4.417969-3.582031-8-8-8s-8 3.582031-8 8v26.972656l-13.28125-6.582031c-3.957031-1.964844-8.753906-.347656-10.71875 3.609375-1.960938 3.953125-.347656 8.753906 3.609375 10.71875l20.390625 10.121094v18.6875c-36.414062-4.109375-63.949219-34.882813-64-71.527344zm88 224h32v32h-32zm0-16v-24h32v24zm-64-24v24h-32v-24zm0 40v32h-32v-32zm-32 72v-24h32v24zm80 32h-32v-157.335938l16-21.328124 16 21.328124zm16-32v-24h32v24zm80 32h-32v-157.335938l16-21.328124 16 21.328124zm-9.601562-196.800781c-1.574219-1.914063-3.921876-3.023438-6.398438-3.023438s-4.824219 1.109375-6.398438 3.023438l-24 32c-1.039062 1.382812-1.601562 3.066406-1.601562 4.800781h-32c0-1.734375-.5625-3.417969-1.601562-4.800781l-6.398438-8.535157v-67.074218c26.957031-2.480469 51.273438-17.234375 65.929688-40 19.476562 23.414062 47.6875 37.835937 78.070312 39.914062v67.199219l-6.398438 8.496094c-1.039062 1.382812-1.601562 3.066406-1.601562 4.800781h-32c0-1.734375-.5625-3.417969-1.601562-4.800781zm25.601562 92.800781h32v32h-32zm0-16v-24h32v24zm0 88v-24h32v24zm80 32h-32v-157.335938l16-21.328124 16 21.328124zm48-144v24h-32v-24zm0 40v32h-32v-32zm-32 72v-24h32v24zm80 32h-32v-157.335938l16-21.328124 16 21.328124zm0 0"/></svg>