<svg id="Capa_1" enable-background="new 0 0 512 512" height="512" viewBox="0 0 512 512" width="512" xmlns="http://www.w3.org/2000/svg"><g><g><g><g><g><path d="m350.136 504.417h-315.167c-15.171 0-27.469-12.298-27.469-27.469v-383.082c0-15.171 12.298-27.469 27.469-27.469h315.167c15.171 0 27.469 12.298 27.469 27.469v383.082c0 15.171-12.298 27.469-27.469 27.469z" fill="#b78b7a"/><path d="m350.136 66.397h-65.333c15.171 0 27.469 12.298 27.469 27.469v383.082c0 15.171-12.298 27.469-27.469 27.469h65.333c15.171 0 27.469-12.298 27.469-27.469v-383.082c0-15.171-12.298-27.469-27.469-27.469z" fill="#aa7a63"/><path d="m324.85 459.098h-264.595c-5.205 0-9.425-4.22-9.425-9.425v-383.276h283.445v383.276c0 5.205-4.219 9.425-9.425 9.425z" fill="#fffbe4"/><path d="m312.272 93.866v365.232h12.579c5.205 0 9.425-4.22 9.425-9.425v-383.276h-49.473c15.171 0 27.469 12.298 27.469 27.469z" fill="#fbf4c6"/><path d="m222.214 44.697v-7.453c0-16.381-13.28-29.661-29.661-29.661-16.381 0-29.661 13.28-29.661 29.661v7.453c0 3.136-2.542 5.678-5.678 5.678h-34.715c-5.432 0-9.836 4.404-9.836 9.836v26.64c0 5.432 4.404 9.836 9.836 9.836h140.108c5.432 0 9.836-4.404 9.836-9.836v-26.64c0-5.432-4.404-9.836-9.836-9.836h-34.715c-3.136.001-5.678-2.542-5.678-5.678z" fill="#a7a2d3"/></g><circle cx="192.553" cy="36.729" r="7.544"/></g></g><g><path d="m464.1 105.105v-25.384c0-7.359-5.965-13.324-13.324-13.324h-6.724c-7.359 0-13.324 5.965-13.324 13.324v25.384z" fill="#5766cb"/><g><g><path d="m467.235 466.017-15.911 35.858c-1.504 3.391-6.316 3.391-7.821 0l-15.911-35.858c-2.635-5.938-3.996-12.362-3.996-18.859v-339.931c0-5.725 4.641-10.366 10.366-10.366h26.902c5.725 0 10.366 4.641 10.366 10.366v339.931c.001 6.496-1.36 12.92-3.995 18.859z" fill="#dd636e"/></g><g><path d="m467.235 466.017-15.911 35.858c-1.504 3.391-6.316 3.391-7.821 0l-15.911-35.858c-2.635-5.938-3.996-12.362-3.996-18.859h47.634c.001 6.496-1.36 12.92-3.995 18.859z" fill="#938bc6"/></g></g></g></g><g><path d="m492.479 108.994h-13.748v-1.767c0-5.82-2.811-10.984-7.132-14.248v-13.258c0-11.482-9.342-20.824-20.824-20.824h-6.723c-11.482 0-20.824 9.341-20.824 20.824v13.258c-4.321 3.264-7.132 8.427-7.132 14.248v339.931c0 7.592 1.562 14.961 4.641 21.901l15.911 35.856c1.887 4.253 6.112 7.002 10.766 7.002s8.879-2.749 10.766-7.001l15.911-35.857c3.079-6.94 4.641-14.309 4.641-21.901v-47.95c0-4.142-3.357-7.5-7.5-7.5s-7.5 3.358-7.5 7.5v40.45h-32.635v-332.431c0-1.58 1.286-2.866 2.866-2.866h26.902c1.58 0 2.866 1.286 2.866 2.866v256.919c0 4.142 3.357 7.5 7.5 7.5s7.5-3.358 7.5-7.5v-240.152h13.748c2.492 0 4.521 2.028 4.521 4.521v89.841c0 4.142 3.357 7.5 7.5 7.5s7.5-3.358 7.5-7.5v-89.841c0-10.765-8.757-19.521-19.521-19.521zm-48.426-35.097h6.723c3.212 0 5.824 2.612 5.824 5.824v9.64h-18.371v-9.64c0-3.212 2.612-5.824 5.824-5.824zm3.361 418.298-12.966-29.22c-1.193-2.69-2.061-5.471-2.618-8.317h31.167c-.557 2.846-1.424 5.627-2.618 8.317z"/><path d="m157.5 178.5h136.611c4.143 0 7.5-3.358 7.5-7.5s-3.357-7.5-7.5-7.5h-136.611c-4.143 0-7.5 3.358-7.5 7.5s3.357 7.5 7.5 7.5z"/><path d="m90.994 229.85h203.117c4.143 0 7.5-3.358 7.5-7.5s-3.357-7.5-7.5-7.5h-203.117c-4.143 0-7.5 3.358-7.5 7.5s3.358 7.5 7.5 7.5z"/><path d="m90.994 281.199h203.117c4.143 0 7.5-3.358 7.5-7.5s-3.357-7.5-7.5-7.5h-203.117c-4.143 0-7.5 3.358-7.5 7.5s3.358 7.5 7.5 7.5z"/><path d="m90.994 332.548h203.117c4.143 0 7.5-3.358 7.5-7.5s-3.357-7.5-7.5-7.5h-203.117c-4.143 0-7.5 3.358-7.5 7.5s3.358 7.5 7.5 7.5z"/><path d="m350.137 58.897h-70.261c-.676-8.945-8.154-16.021-17.269-16.021h-32.893v-5.631c0-20.491-16.67-37.161-37.161-37.161s-37.161 16.67-37.161 37.161v5.631h-32.894c-9.115 0-16.592 7.076-17.268 16.021h-70.261c-19.282 0-34.969 15.687-34.969 34.969v383.082c0 19.282 15.687 34.969 34.969 34.969h315.168c19.282 0 34.969-15.687 34.969-34.969v-383.082c-.001-19.282-15.687-34.969-34.969-34.969zm-229.974 1.314c0-1.288 1.048-2.336 2.335-2.336h34.715c7.267 0 13.179-5.912 13.179-13.178v-7.453c0-12.22 9.941-22.161 22.161-22.161s22.161 9.941 22.161 22.161v7.453c0 7.267 5.912 13.178 13.179 13.178h34.714c1.288 0 2.336 1.048 2.336 2.336v26.64c0 1.288-1.048 2.335-2.336 2.335h-140.109c-1.287 0-2.335-1.048-2.335-2.335zm249.942 416.737c0 11.011-8.958 19.969-19.969 19.969h-315.167c-11.011 0-19.969-8.958-19.969-19.969v-383.082c0-11.011 8.958-19.969 19.969-19.969h8.361v130.921c0 4.142 3.357 7.5 7.5 7.5s7.5-3.358 7.5-7.5v-130.921h46.833v12.954c0 9.559 7.776 17.335 17.335 17.335h140.108c9.559 0 17.336-7.777 17.336-17.335v-12.954h46.833v375.776c0 1.062-.863 1.925-1.925 1.925h-264.595c-1.062 0-1.925-.863-1.925-1.925v-209.793c0-4.142-3.357-7.5-7.5-7.5s-7.5 3.358-7.5 7.5v209.792c0 9.333 7.593 16.925 16.925 16.925h264.596c9.332 0 16.925-7.592 16.925-16.925v-375.775h8.361c11.011 0 19.969 8.958 19.969 19.969v383.082z"/></g></g></svg>