<svg id="Capa_1" enable-background="new 0 0 512 512" height="512" viewBox="0 0 512 512" width="512" xmlns="http://www.w3.org/2000/svg"><g><g><path d="m320.508 372.447-22.081-23.882-.644-8.998 46.312-46.312 9.414.228 23.882 22.08 2.164 6.829-50.242 50.243z" fill="#daeaef"/><g><g><g><g fill="#daeaef"><path d="m431.389 26.825c6.087-6.087 6.087-16.047 0-22.134-10.455-5.115-22.79-4.585-32.768 1.409l-32.953 19.796c-19.075 11.459-28.323 33.971-23.159 55.617 4.092 17.15-1.009 35.201-13.482 47.674l11.713 1.041c12.042-8.912 27.563-11.918 42.444-8.424 8.645 2.029 17.421 1.714 25.563-.622l5.974-11.211-16.415-16.416c-2.877-2.877-4.532-6.753-4.62-10.821l-.24-11.081c-.093-4.304 1.576-8.46 4.62-11.505z"/><path d="m138.003 320.211c-34.666 34.666-72.145 6.241-112.067 46.164-23.352 23.351-30.213 56.949-20.585 86.322.005-.011.01-.022.014-.033l6.024 6.024c13.408 4.38 27.806 2.37 42.236-.062l1.619-4.956-6.116-6.116c-2.765-2.765-4.319-6.516-4.319-10.426v-21.753c0-3.91 1.554-7.661 4.319-10.426l15.382-15.382c2.765-2.765 6.516-4.319 10.426-4.319h21.753c3.911 0 7.661 1.553 10.426 4.318l6.098 6.098 8.146-3.322c2.15-12.772 1.178-35.744 14.238-55.796z"/></g><g><path d="m507.373 80.675c-6.087-6.087-16.047-6.087-22.134 0l-33.7 33.7c-2.821 2.821-6.606 4.47-10.594 4.614l-9.737.351c-4.381.158-8.631-1.513-11.732-4.613l-4.756-4.756c-11.046 6.571-24.454 8.886-37.561 5.809-17.007-3.992-34.85.503-47.38 12.604-.254.266-.492.543-.753.804-4.199 4.199-190.541 190.541-191.024 191.024-.349.349-.705.675-1.058 1.012-20.82 21.78-19.117 50.291-21.61 65.095-.529 3.141-1.242 6.262-2.122 9.346l9.283 9.284c2.765 2.765 4.319 6.516 4.319 10.426v21.753c0 3.911-1.554 7.661-4.319 10.426l-15.382 15.382c-2.765 2.765-6.516 4.319-10.426 4.319h-21.753c-3.911 0-7.661-1.553-10.426-4.319l-9.266-9.266c-16.308 4.613-33.75 4.263-49.879-1.006 4.123 12.593 11.253 24.417 21.438 34.319 32.156 31.265 83.928 31.831 116.722 1.236 42.929-40.051 12.998-78.828 48.328-114.158.499-.499 186.986-186.986 191.194-191.193 12.556-12.556 30.721-17.25 48.008-13.192 21.463 5.038 43.746-4.357 55.113-23.279l19.796-32.953c5.996-9.979 6.526-22.314 1.411-32.769z" fill="#c7e0e5"/></g><g><path d="m160.761 351.304c-3.003-3.004-3.003-7.872 0-10.876l189.55-189.551c3.003-3.002 7.872-3.002 10.875 0 3.004 3.004 3.004 7.872 0 10.876l-189.55 189.551c-3.004 3.003-7.872 3.002-10.875 0z" fill="#daeaef"/></g></g></g></g><g><path d="m320.508 372.447 56.884-56.884 125.933 116.431c11.261 10.411 11.607 28.097.763 38.941l-28.207 28.207c-10.844 10.844-28.53 10.498-38.941-.763z" fill="#f9bc66"/></g></g><g><g><g><path d="m298.427 348.565 55.082-55.082-203.052-187.733-39.762 39.763z" fill="#a6ced3"/></g></g><g><path d="m44.445 136.673h61.66v58.6h-61.66z" fill="#a6ced3" transform="matrix(.707 -.707 .707 .707 -95.313 101.84)"/><g><path d="m198.512 56.569c-2.662-3.984-5.792-7.743-9.398-11.193l-27.075-25.902-5.028.456c-22.14 13.694-30.103 26.195-95.096 89.893-5.223 5.223-5.223 13.691 0 18.914l52.739 52.739c4.983 4.983 13.063 4.983 18.046 0l53.993-53.993c9.222-9.222 12.749-22.573 9.725-35.259-2.822-11.842-1.726-21.125 1.979-28.783.591-1.222.115-6.872.115-6.872z" fill="#daeaef"/></g><g><path d="m255.835 24.102c-29.888-24.274-64.947-25.248-98.824-4.172l29.412 28.138c4.844 4.634 8.829 9.826 11.975 15.372 10.019-21.116 38.926-28.161 54.966-30.476 4.332-.625 5.869-6.103 2.471-8.862z" fill="#c7e0e5"/></g><path d="m20.408 151.329-16.532 16.532c-5.168 5.168-5.168 13.547 0 18.715l52.504 52.504c5.168 5.168 13.547 5.168 18.715 0l16.532-16.532c5.168-5.168 5.168-13.547 0-18.715l-52.504-52.504c-5.168-5.168-13.547-5.168-18.715 0z" fill="#c7e0e5"/></g></g></g></svg>