<svg height="512pt" viewBox="0 0 512 512" width="512pt" xmlns="http://www.w3.org/2000/svg"><path d="m512 256c0 28.984375-4.816406 56.84375-13.710938 82.820312-3.59375 10.542969-7.867187 20.769532-12.757812 30.632813-1.867188 3.785156-3.832031 7.515625-5.882812 11.183594-12.097657 21.691406-27.269532 41.4375-44.929688 58.636719-13.929688 13.605468-29.414062 25.613281-46.140625 35.769531-38.671875 23.457031-84.042969 36.957031-132.578125 36.957031s-93.90625-13.5-132.578125-36.957031c-16.726563-10.15625-32.210937-22.164063-46.140625-35.769531-17.660156-17.207032-32.839844-36.957032-44.941406-58.660157-2.046875-3.667969-4.003906-7.386719-5.871094-11.160156-4.890625-9.863281-9.164062-20.089844-12.769531-30.632813-8.882813-25.976562-13.699219-53.835937-13.699219-82.820312 0-45.242188 11.734375-87.761719 32.339844-124.644531 12.109375-21.683594 27.28125-41.429688 44.941406-58.652344 46.132812-44.980469 109.179688-72.703125 178.71875-72.703125s132.585938 27.722656 178.71875 72.703125c17.648438 17.222656 32.820312 36.957031 44.929688 58.628906 20.605468 36.898438 32.351562 79.414063 32.351562 124.667969zm0 0" fill="#d8ebf7"/><path d="m95.734375 186.65625h179.566406v164.308594h-179.566406zm0 0" fill="#2385ec"/><path d="m95.734375 186.65625 89.785156 60.046875 89.785157-60.046875zm0 0" fill="#125699"/><path d="m167.136719 186.65625h36.761719v79.105469h-36.761719zm0 0" fill="#fc5b5b"/><path d="m388.578125 395.535156v79.507813c-38.671875 23.457031-84.042969 36.957031-132.578125 36.957031s-93.90625-13.5-132.578125-36.957031v-79.507813zm0 0" fill="#fc5b5b"/><path d="m123.421875 395.539062 132.574219 60.046876 132.578125-60.046876zm0 0" fill="#d93d3d"/><path d="m240.578125 395.539062h30.839844v79.109376h-30.839844zm0 0" fill="#fee887"/><path d="m298.09375 210.144531h125.527344v140.820313h-125.527344zm0 0" fill="#fee887"/><path d="m298.09375 210.144531 62.765625 51.460938 62.761719-51.460938zm0 0" fill="#fd9b3d"/><path d="m348.007812 210.144531h25.699219v67.800781h-25.699219zm0 0" fill="#2385ec"/><path d="m208.28125 9.011719h125.527344v140.820312h-125.527344zm0 0" fill="#fc5b5b"/><path d="m333.808594 9.011719-62.765625 51.464843-62.761719-51.464843zm0 0" fill="#d93d3d"/><path d="m258.195312 9.011719h25.699219v67.800781h-25.699219zm0 0" fill="#fee887"/><path d="m104.917969 46.148438h92.425781v103.683593h-92.425781zm0 0" fill="#484f60"/><path d="m197.34375 46.148438-46.210938 37.890624-46.214843-37.890624zm0 0" fill="#272f38"/><path d="m141.671875 46.148438h18.921875v49.921874h-18.921875zm0 0" fill="#2385ec"/><path d="m352.101562 46.148438h67.929688v103.683593h-67.929688zm0 0" fill="#66cc9a"/><path d="m420.03125 46.148438-33.964844 37.890624-33.964844-37.890624zm0 0" fill="#319986"/><path d="m379.113281 46.148438h13.90625v49.921874h-13.90625zm0 0" fill="#fc5b5b"/><path d="m498.289062 338.820312c-3.59375 10.542969-7.867187 20.769532-12.757812 30.632813h-459.0625c-4.890625-9.863281-9.164062-20.089844-12.769531-30.632813zm0 0" fill="#272f38"/><path d="m9.816406 139.675781h492.359375v30.636719h-492.359375zm0 0" fill="#272f38"/><g fill="#484f60"><path d="m77.28125 0v439.273438c-17.660156-17.207032-32.839844-36.957032-44.941406-58.660157v-380.613281zm0 0"/><path d="m479.648438 0v380.636719c-12.097657 21.691406-27.269532 41.4375-44.929688 58.636719v-439.273438zm0 0"/></g></svg>