<svg height="512" viewBox="0 0 64 64" width="512" xmlns="http://www.w3.org/2000/svg"><g id="store-delivery-logistic-marketing-seo"><path d="m61 19v42h-58v-42l29-16z" fill="#2488ff"/><path d="m61 19v42h-5v-42l-26.5-14.62 2.5-1.38z" fill="#005ece"/><path d="m40 33h17v14h-17z" fill="#c0ab91"/><path d="m53 33h4v14h-4z" fill="#a78966"/><path d="m57 25v8h-50v-8a2.006 2.006 0 0 0 2 2h46a2.015 2.015 0 0 0 2-2z" fill="#46f8ff"/><path d="m55 23a2.006 2.006 0 0 1 2 2 2.015 2.015 0 0 1 -2 2h-46a2.006 2.006 0 0 1 -2-2 2.015 2.015 0 0 1 2-2z" fill="#c6c5ca"/><path d="m57 25v8h-4v-6h2a2.015 2.015 0 0 0 2-2z" fill="#00d7df"/><path d="m57 25a2.015 2.015 0 0 1 -2 2h-4a2.015 2.015 0 0 0 2-2 2.006 2.006 0 0 0 -2-2h4a2.006 2.006 0 0 1 2 2z" fill="#898890"/><path d="m40 47h17v14h-17z" fill="#c0ab91"/><path d="m53 47h4v14h-4z" fill="#a78966"/><path d="m24 47h16v14h-16z" fill="#c0ab91"/><path d="m7 47h17v14h-17z" fill="#c0ab91"/><path d="m52 47v6l-4 2-4-2v-6z" fill="#ffde55"/><path d="m52 33v6l-4 2-4-2v-6z" fill="#ffde55"/><path d="m24 33h16v14h-16z" fill="#c0ab91"/><path d="m36 47v6l-4 2-4-2v-6z" fill="#ffde55"/><path d="m36 33v6l-4 2-4-2v-6z" fill="#ffde55"/><path d="m7 33h17v14h-17z" fill="#c0ab91"/><g fill="#ffde55"><path d="m20 47v6l-4 2-4-2v-6z"/><path d="m20 33v6l-4 2-4-2v-6z"/><rect height="6" rx="3" width="14" x="25" y="11"/></g><path d="m39 14a3 3 0 0 1 -3 3h-4a3 3 0 0 0 0-6h4a3 3 0 0 1 3 3z" fill="#ebbf00"/><path d="m61.48 18.12-29-16a1.02 1.02 0 0 0 -.96 0l-29 16a1.018 1.018 0 0 0 -.52.88v42a1 1 0 0 0 1 1h58a1 1 0 0 0 1-1v-42a1.018 1.018 0 0 0 -.52-.88zm-38.48 41.88h-15v-12h3v5a.977.977 0 0 0 .55.89l4 2a.975.975 0 0 0 .9 0l4-2a.977.977 0 0 0 .55-.89v-5h2zm-10-7.62v-4.38h6v4.38l-3 1.5zm10-6.38h-15v-12h3v5a.977.977 0 0 0 .55.89l4 2a.975.975 0 0 0 .9 0l4-2a.977.977 0 0 0 .55-.89v-5h2zm-10-7.62v-4.38h6v4.38l-3 1.5zm26 21.62h-14v-12h2v5a.977.977 0 0 0 .55.89l4 2a.975.975 0 0 0 .9 0l4-2a.977.977 0 0 0 .55-.89v-5h2zm-10-7.62v-4.38h6v4.38l-3 1.5zm10-6.38h-14v-12h2v5a.977.977 0 0 0 .55.89l4 2a.975.975 0 0 0 .9 0l4-2a.977.977 0 0 0 .55-.89v-5h2zm-10-7.62v-4.38h6v4.38l-3 1.5zm27 21.62h-15v-12h2v5a.977.977 0 0 0 .55.89l4 2a.975.975 0 0 0 .9 0l4-2a.977.977 0 0 0 .55-.89v-5h3zm-11-7.62v-4.38h6v4.38l-3 1.5zm11-6.38h-15v-12h2v5a.977.977 0 0 0 .55.89l4 2a.975.975 0 0 0 .9 0l4-2a.977.977 0 0 0 .55-.89v-5h3zm-11-7.62v-4.38h6v4.38l-3 1.5zm11-6.38h-48v-4.18a3 3 0 0 0 1 .18h46a3 3 0 0 0 1-.18zm-1-6h-46a1 1 0 0 1 0-2h46a1 1 0 0 1 0 2zm5 34h-2v-35a3.009 3.009 0 0 0 -3-3h-46a3.009 3.009 0 0 0 -3 3v35h-2v-40.41l28-15.45 28 15.45z"/><path d="m24 14a4 4 0 0 0 4 4h8a4 4 0 0 0 0-8h-8a4 4 0 0 0 -4 4zm14 0a2 2 0 0 1 -2 2h-8a2 2 0 0 1 0-4h8a2 2 0 0 1 2 2z"/><path d="m31 49h2v2h-2z"/><path d="m15 49h2v2h-2z"/><path d="m47 49h2v2h-2z"/><path d="m15 35h2v2h-2z"/><path d="m47 35h2v2h-2z"/><path d="m31 35h2v2h-2z"/></g></svg>