<svg height="472pt" viewBox="0 -29 472 472" width="472pt" xmlns="http://www.w3.org/2000/svg"><path d="m290.46875 180v-120.101562h173.453125v160.203124h-173.453125zm0 0" fill="#fedb41"/><path d="m423.75 271.21875v68.871094h-415.671875v-68.871094zm0 0" fill="#00acea"/><path d="m290.46875 180v40.101562h133.28125v51.117188h-415.671875v-262.820312h415.671875v51.5h-133.28125zm0 0" fill="#00efd1"/><path d="m271.019531 340.089844 18.359375 65.511718h-146.929687l18.371093-65.511718zm0 0" fill="#f4b844"/><path d="m8.078125 348h142.191406l-13.882812 50h-24.726563c-4.417968 0-8 3.582031-8 8s3.582032 8 8 8h208.519532c4.417968 0 8-3.582031 8-8s-3.582032-8-8-8h-24.734376l-13.875-50h142.179688c4.449219.0625 8.125-3.460938 8.25-7.910156v-112.089844h31.921875c2.117187.027344 4.160156-.792969 5.675781-2.273438 1.515625-1.484374 2.378906-3.507812 2.402344-5.625v-160.203124c-.023438-2.117188-.886719-4.140626-2.402344-5.625-1.515625-1.480469-3.558594-2.300782-5.675781-2.273438h-31.921875v-43.601562c-.085938-4.542969-3.707031-8.230469-8.25-8.398438h-415.671875c-4.507813.183594-8.0703125 3.886719-8.078125 8.398438v331.691406c.046875 4.417968 3.664062 7.957031 8.078125 7.910156zm144.921875 50 13.882812-50h98.070313l13.875 50zm278.75-330h24.25v144h-158v-24h62c4.417969 0 8-3.582031 8-8s-3.582031-8-8-8h-62v-50h42.644531l-16.113281 16.113281c-3.121094 3.125-3.121094 8.1875 0 11.3125 3.125 3.125 8.191406 3.125 11.316406 0l29.453125-29.453125c.222657-.203125.433594-.414062.636719-.636718l.648438-.648438c3.125-3.125 3.125-8.191406 0-11.316406l-30.742188-30.738282c-3.121094-3.125-8.1875-3.125-11.3125 0s-3.125 8.191407 0 11.3125l18.054688 18.054688h-44.585938v-38zm-415.75-52h400v36h-125.53125c-4.417969 0-8.46875 3.480469-8.46875 7.898438v46.101562h-92c-4.417969 0-8 3.582031-8 8s3.582031 8 8 8h92v50h-74.285156l18.664062-18.664062c3.121094-3.125 3.121094-8.1875 0-11.3125-3.125-3.125-8.191406-3.125-11.316406 0l-30.738281 30.738281c-1.5 1.5-2.34375 3.535156-2.34375 5.660156 0 .300781.019531.597656.054687.898437-.019531.226563-.035156.453126-.035156.683594.003906 3.636719 2.460938 6.8125 5.980469 7.734375l27.082031 27.082031c3.128906 3.125 8.195312 3.125 11.320312-.003906 3.121094-3.125 3.121094-8.191406-.003906-11.316406l-15.5-15.5h71.121094v32.101562c0 4.417969 4.050781 7.898438 8.46875 7.898438h125.53125v35h-400zm0 263h400v53h-400zm0 0" fill="#083863"/></svg>