<svg width="662" height="338" viewBox="0 0 662 338" fill="none" xmlns="http://www.w3.org/2000/svg">
<path d="M156.413 235.373C133.176 231.688 116.168 227.585 105.229 223.851C97.3785 207.62 91.5331 184.454 91.3408 158.94C91.1677 135.977 95.4981 120.355 99.4338 111.471C99.458 111.464 99.4822 111.457 99.5065 111.45C111.739 107.976 130.226 104.349 154.759 101.165C203.375 94.8554 266.538 91.4351 331.182 91.375C395.838 91.3149 458.93 94.6194 507.432 100.89C531.799 104.04 550.105 107.643 562.19 111.093C566.429 120.452 570.878 136.512 570.752 159.503C570.614 184.847 564.82 207.704 556.968 223.725C545.967 227.502 528.8 231.652 505.318 235.371C457.726 242.909 395.19 247 330.81 247C266.428 247 203.931 242.909 156.413 235.373ZM90.39 114.515C90.3901 114.515 90.3902 114.515 90.3904 114.515C90.3902 114.515 90.39 114.515 90.3898 114.515L90.39 114.515ZM565.564 220.167C565.595 220.179 565.23 220.406 564.378 220.812C565.108 220.358 565.534 220.155 565.564 220.167ZM97.6678 220.892C96.7805 220.47 96.4015 220.234 96.4337 220.222C96.466 220.21 96.9097 220.42 97.6678 220.892Z" stroke="white" stroke-width="182"/>
</svg>
